<?xml version="1.0" encoding="UTF-8" standalone="no"?>
<!DOCTYPE svg PUBLIC "-//W3C//DTD SVG 1.1//EN"
 "http://www.w3.org/Graphics/SVG/1.1/DTD/svg11.dtd">
<!-- Generated by graphviz version 2.47.0 (20210316.0004)
 -->
<!-- Title: dependencies Pages: 1 -->
<svg width="504pt" height="287pt"
 viewBox="0.00 0.00 504.00 287.00" xmlns="http://www.w3.org/2000/svg" xmlns:xlink="http://www.w3.org/1999/xlink">
<g id="graph0" class="graph" transform="scale(1 1) rotate(0) translate(4 283)">
<title>dependencies</title>
<polygon fill="white" stroke="transparent" points="-4,4 -4,-283 500,-283 500,4 -4,4"/>
<text text-anchor="start" x="227.01" y="-42.4" font-family="Times-12" font-weight="bold" font-size="14.00">Legend</text>
<polygon fill="#ffffb3" stroke="transparent" points="14,-10 14,-30 34,-30 34,-10 14,-10"/>
<text text-anchor="start" x="37.63" y="-15.4" font-family="Times-12" font-size="14.00"> &#160;Declarations</text>
<polygon fill="#8dd3c7" stroke="transparent" points="127,-10 127,-30 147,-30 147,-10 127,-10"/>
<text text-anchor="start" x="150.73" y="-15.4" font-family="Times-12" font-size="14.00"> &#160;Module</text>
<polygon fill="#80b1d3" stroke="transparent" points="213,-10 213,-30 233,-30 233,-10 213,-10"/>
<text text-anchor="start" x="236.78" y="-15.4" font-family="Times-12" font-size="14.00"> &#160;Bootstrap</text>
<polygon fill="#fdb462" stroke="transparent" points="310,-10 310,-30 330,-30 330,-10 310,-10"/>
<text text-anchor="start" x="333.67" y="-15.4" font-family="Times-12" font-size="14.00"> &#160;Providers</text>
<polygon fill="#fb8072" stroke="transparent" points="406,-10 406,-30 426,-30 426,-10 406,-10"/>
<text text-anchor="start" x="429.73" y="-15.4" font-family="Times-12" font-size="14.00"> &#160;Exports</text>
<g id="clust1" class="cluster">
<title>cluster_AppModule</title>
<polygon fill="none" stroke="black" stroke-dasharray="1,5" points="125,-146 125,-271 389,-271 389,-146 125,-146"/>
</g>
<g id="clust3" class="cluster">
<title>cluster_AppModule_imports</title>
<polygon fill="none" stroke="black" points="133,-154 133,-206 381,-206 381,-154 133,-154"/>
</g>
<g id="clust13" class="cluster">
<title>cluster_ProductModule</title>
<polygon fill="none" stroke="black" stroke-dasharray="1,5" points="107,-70 107,-138 279,-138 279,-70 107,-70"/>
</g>
<g id="clust18" class="cluster">
<title>cluster_ProductModule_providers</title>
<polygon fill="none" stroke="black" points="115,-78 115,-130 271,-130 271,-78 115,-78"/>
</g>
<!-- DatabaseModule -->
<g id="node1" class="node">
<title>DatabaseModule</title>
<polygon fill="#8dd3c7" stroke="black" points="373.35,-198 370.35,-202 349.35,-202 346.35,-198 262.65,-198 262.65,-162 373.35,-162 373.35,-198"/>
<text text-anchor="middle" x="318" y="-175.8" font-family="Times,serif" font-size="14.00">DatabaseModule</text>
</g>
<!-- AppModule -->
<g id="node3" class="node">
<title>AppModule</title>
<polygon fill="#8dd3c7" stroke="black" points="296.66,-263 293.66,-267 272.66,-267 269.66,-263 213.34,-263 213.34,-227 296.66,-227 296.66,-263"/>
<text text-anchor="middle" x="255" y="-240.8" font-family="Times,serif" font-size="14.00">AppModule</text>
</g>
<!-- DatabaseModule&#45;&gt;AppModule -->
<g id="edge1" class="edge">
<title>DatabaseModule&#45;&gt;AppModule</title>
<path fill="none" stroke="black" d="M279.7,-198.11C279.7,-198.11 279.7,-216.99 279.7,-216.99"/>
<polygon fill="black" stroke="black" points="276.2,-216.99 279.7,-226.99 283.2,-216.99 276.2,-216.99"/>
</g>
<!-- ProductModule -->
<g id="node2" class="node">
<title>ProductModule</title>
<polygon fill="#8dd3c7" stroke="black" points="244.6,-198 241.6,-202 220.6,-202 217.6,-198 141.4,-198 141.4,-162 244.6,-162 244.6,-198"/>
<text text-anchor="middle" x="193" y="-175.8" font-family="Times,serif" font-size="14.00">ProductModule</text>
</g>
<!-- ProductModule&#45;&gt;AppModule -->
<g id="edge2" class="edge">
<title>ProductModule&#45;&gt;AppModule</title>
<path fill="none" stroke="black" d="M228.86,-198.11C228.86,-198.11 228.86,-216.99 228.86,-216.99"/>
<polygon fill="black" stroke="black" points="225.36,-216.99 228.86,-226.99 232.36,-216.99 225.36,-216.99"/>
</g>
<!-- ProductService -->
<g id="node4" class="node">
<title>ProductService</title>
<ellipse fill="#fdb462" stroke="black" cx="193" cy="-104" rx="70.06" ry="18"/>
<text text-anchor="middle" x="193" y="-99.8" font-family="Times,serif" font-size="14.00">ProductService</text>
</g>
<!-- ProductService&#45;&gt;ProductModule -->
<g id="edge3" class="edge">
<title>ProductService&#45;&gt;ProductModule</title>
<path fill="none" stroke="black" d="M193,-122.01C193,-122.01 193,-151.85 193,-151.85"/>
<polygon fill="black" stroke="black" points="189.5,-151.85 193,-161.85 196.5,-151.85 189.5,-151.85"/>
</g>
</g>
</svg>
