<?xml version="1.0" encoding="UTF-8" standalone="no"?>
<!DOCTYPE svg PUBLIC "-//W3C//DTD SVG 1.1//EN"
 "http://www.w3.org/Graphics/SVG/1.1/DTD/svg11.dtd">
<!-- Generated by graphviz version 2.47.0 (20210316.0004)
 -->
<!-- Title: dependencies Pages: 1 -->
<svg width="504pt" height="211pt"
 viewBox="0.00 0.00 504.00 211.00" xmlns="http://www.w3.org/2000/svg" xmlns:xlink="http://www.w3.org/1999/xlink">
<g id="graph0" class="graph" transform="scale(1 1) rotate(0) translate(4 207)">
<title>dependencies</title>
<polygon fill="white" stroke="transparent" points="-4,4 -4,-207 500,-207 500,4 -4,4"/>
<text text-anchor="start" x="227.01" y="-42.4" font-family="Times-12" font-weight="bold" font-size="14.00">Legend</text>
<polygon fill="#ffffb3" stroke="transparent" points="14,-10 14,-30 34,-30 34,-10 14,-10"/>
<text text-anchor="start" x="37.63" y="-15.4" font-family="Times-12" font-size="14.00"> &#160;Declarations</text>
<polygon fill="#8dd3c7" stroke="transparent" points="127,-10 127,-30 147,-30 147,-10 127,-10"/>
<text text-anchor="start" x="150.73" y="-15.4" font-family="Times-12" font-size="14.00"> &#160;Module</text>
<polygon fill="#80b1d3" stroke="transparent" points="213,-10 213,-30 233,-30 233,-10 213,-10"/>
<text text-anchor="start" x="236.78" y="-15.4" font-family="Times-12" font-size="14.00"> &#160;Bootstrap</text>
<polygon fill="#fdb462" stroke="transparent" points="310,-10 310,-30 330,-30 330,-10 310,-10"/>
<text text-anchor="start" x="333.67" y="-15.4" font-family="Times-12" font-size="14.00"> &#160;Providers</text>
<polygon fill="#fb8072" stroke="transparent" points="406,-10 406,-30 426,-30 426,-10 406,-10"/>
<text text-anchor="start" x="429.73" y="-15.4" font-family="Times-12" font-size="14.00"> &#160;Exports</text>
<g id="clust1" class="cluster">
<title>cluster_AppModule</title>
<polygon fill="none" stroke="black" stroke-dasharray="1,5" points="17.5,-70 17.5,-195 478.5,-195 478.5,-70 17.5,-70"/>
</g>
<g id="clust3" class="cluster">
<title>cluster_AppModule_imports</title>
<polygon fill="none" stroke="black" points="25.5,-78 25.5,-130 470.5,-130 470.5,-78 25.5,-78"/>
</g>
<!-- CartModule -->
<g id="node1" class="node">
<title>CartModule</title>
<polygon fill="#8dd3c7" stroke="black" points="462.15,-122 459.15,-126 438.15,-126 435.15,-122 378.85,-122 378.85,-86 462.15,-86 462.15,-122"/>
<text text-anchor="middle" x="420.5" y="-99.8" font-family="Times,serif" font-size="14.00">CartModule</text>
</g>
<!-- AppModule -->
<g id="node5" class="node">
<title>AppModule</title>
<polygon fill="#8dd3c7" stroke="black" points="291.16,-187 288.16,-191 267.16,-191 264.16,-187 207.84,-187 207.84,-151 291.16,-151 291.16,-187"/>
<text text-anchor="middle" x="249.5" y="-164.8" font-family="Times,serif" font-size="14.00">AppModule</text>
</g>
<!-- CartModule&#45;&gt;AppModule -->
<g id="edge1" class="edge">
<title>CartModule&#45;&gt;AppModule</title>
<path fill="none" stroke="black" d="M420.5,-122.11C420.5,-141.34 420.5,-169 420.5,-169 420.5,-169 301.33,-169 301.33,-169"/>
<polygon fill="black" stroke="black" points="301.33,-165.5 291.33,-169 301.33,-172.5 301.33,-165.5"/>
</g>
<!-- InvoiceModule -->
<g id="node2" class="node">
<title>InvoiceModule</title>
<polygon fill="#8dd3c7" stroke="black" points="360.03,-122 357.03,-126 336.03,-126 333.03,-122 258.97,-122 258.97,-86 360.03,-86 360.03,-122"/>
<text text-anchor="middle" x="309.5" y="-99.8" font-family="Times,serif" font-size="14.00">InvoiceModule</text>
</g>
<!-- InvoiceModule&#45;&gt;AppModule -->
<g id="edge2" class="edge">
<title>InvoiceModule&#45;&gt;AppModule</title>
<path fill="none" stroke="black" d="M275.03,-122.11C275.03,-122.11 275.03,-140.99 275.03,-140.99"/>
<polygon fill="black" stroke="black" points="271.53,-140.99 275.03,-150.99 278.53,-140.99 271.53,-140.99"/>
</g>
<!-- ProductModule -->
<g id="node3" class="node">
<title>ProductModule</title>
<polygon fill="#8dd3c7" stroke="black" points="241.1,-122 238.1,-126 217.1,-126 214.1,-122 137.9,-122 137.9,-86 241.1,-86 241.1,-122"/>
<text text-anchor="middle" x="189.5" y="-99.8" font-family="Times,serif" font-size="14.00">ProductModule</text>
</g>
<!-- ProductModule&#45;&gt;AppModule -->
<g id="edge3" class="edge">
<title>ProductModule&#45;&gt;AppModule</title>
<path fill="none" stroke="black" d="M224.36,-122.11C224.36,-122.11 224.36,-140.99 224.36,-140.99"/>
<polygon fill="black" stroke="black" points="220.86,-140.99 224.36,-150.99 227.86,-140.99 220.86,-140.99"/>
</g>
<!-- UserModule -->
<g id="node4" class="node">
<title>UserModule</title>
<polygon fill="#8dd3c7" stroke="black" points="119.48,-122 116.48,-126 95.48,-126 92.48,-122 33.52,-122 33.52,-86 119.48,-86 119.48,-122"/>
<text text-anchor="middle" x="76.5" y="-99.8" font-family="Times,serif" font-size="14.00">UserModule</text>
</g>
<!-- UserModule&#45;&gt;AppModule -->
<g id="edge4" class="edge">
<title>UserModule&#45;&gt;AppModule</title>
<path fill="none" stroke="black" d="M76.5,-122.11C76.5,-141.34 76.5,-169 76.5,-169 76.5,-169 197.62,-169 197.62,-169"/>
<polygon fill="black" stroke="black" points="197.62,-172.5 207.62,-169 197.62,-165.5 197.62,-172.5"/>
</g>
</g>
</svg>
