<?xml version="1.0" encoding="UTF-8" standalone="no"?>
<!DOCTYPE svg PUBLIC "-//W3C//DTD SVG 1.1//EN"
 "http://www.w3.org/Graphics/SVG/1.1/DTD/svg11.dtd">
<!-- Generated by graphviz version 2.47.0 (20210316.0004)
 -->
<!-- Title: dependencies Pages: 1 -->
<svg width="725pt" height="211pt"
 viewBox="0.00 0.00 725.00 211.00" xmlns="http://www.w3.org/2000/svg" xmlns:xlink="http://www.w3.org/1999/xlink">
<g id="graph0" class="graph" transform="scale(1 1) rotate(0) translate(4 207)">
<title>dependencies</title>
<polygon fill="white" stroke="transparent" points="-4,4 -4,-207 721,-207 721,4 -4,4"/>
<text text-anchor="start" x="337.51" y="-42.4" font-family="Times-12" font-weight="bold" font-size="14.00">Legend</text>
<polygon fill="#ffffb3" stroke="transparent" points="124.5,-10 124.5,-30 144.5,-30 144.5,-10 124.5,-10"/>
<text text-anchor="start" x="148.13" y="-15.4" font-family="Times-12" font-size="14.00"> &#160;Declarations</text>
<polygon fill="#8dd3c7" stroke="transparent" points="237.5,-10 237.5,-30 257.5,-30 257.5,-10 237.5,-10"/>
<text text-anchor="start" x="261.23" y="-15.4" font-family="Times-12" font-size="14.00"> &#160;Module</text>
<polygon fill="#80b1d3" stroke="transparent" points="323.5,-10 323.5,-30 343.5,-30 343.5,-10 323.5,-10"/>
<text text-anchor="start" x="347.28" y="-15.4" font-family="Times-12" font-size="14.00"> &#160;Bootstrap</text>
<polygon fill="#fdb462" stroke="transparent" points="420.5,-10 420.5,-30 440.5,-30 440.5,-10 420.5,-10"/>
<text text-anchor="start" x="444.17" y="-15.4" font-family="Times-12" font-size="14.00"> &#160;Providers</text>
<polygon fill="#fb8072" stroke="transparent" points="516.5,-10 516.5,-30 536.5,-30 536.5,-10 516.5,-10"/>
<text text-anchor="start" x="540.23" y="-15.4" font-family="Times-12" font-size="14.00"> &#160;Exports</text>
<g id="clust1" class="cluster">
<title>cluster_UserModule</title>
<polygon fill="none" stroke="black" stroke-dasharray="1,5" points="8,-70 8,-195 709,-195 709,-70 8,-70"/>
</g>
<g id="clust3" class="cluster">
<title>cluster_UserModule_imports</title>
<polygon fill="none" stroke="black" points="587,-78 587,-130 701,-130 701,-78 587,-78"/>
</g>
<g id="clust6" class="cluster">
<title>cluster_UserModule_providers</title>
<polygon fill="none" stroke="black" points="16,-78 16,-130 579,-130 579,-78 16,-78"/>
</g>
<!-- PrismaModule -->
<g id="node1" class="node">
<title>PrismaModule</title>
<polygon fill="#8dd3c7" stroke="black" points="693.43,-122 690.43,-126 669.43,-126 666.43,-122 594.57,-122 594.57,-86 693.43,-86 693.43,-122"/>
<text text-anchor="middle" x="644" y="-99.8" font-family="Times,serif" font-size="14.00">PrismaModule</text>
</g>
<!-- UserModule -->
<g id="node2" class="node">
<title>UserModule</title>
<polygon fill="#8dd3c7" stroke="black" points="414.98,-187 411.98,-191 390.98,-191 387.98,-187 329.02,-187 329.02,-151 414.98,-151 414.98,-187"/>
<text text-anchor="middle" x="372" y="-164.8" font-family="Times,serif" font-size="14.00">UserModule</text>
</g>
<!-- PrismaModule&#45;&gt;UserModule -->
<g id="edge1" class="edge">
<title>PrismaModule&#45;&gt;UserModule</title>
<path fill="none" stroke="black" d="M644,-122.28C644,-143.32 644,-175 644,-175 644,-175 425.1,-175 425.1,-175"/>
<polygon fill="black" stroke="black" points="425.1,-171.5 415.1,-175 425.1,-178.5 425.1,-171.5"/>
</g>
<!-- AuthService -->
<g id="node3" class="node">
<title>AuthService</title>
<ellipse fill="#fdb462" stroke="black" cx="512" cy="-104" rx="59.11" ry="18"/>
<text text-anchor="middle" x="512" y="-99.8" font-family="Times,serif" font-size="14.00">AuthService</text>
</g>
<!-- AuthService&#45;&gt;UserModule -->
<g id="edge2" class="edge">
<title>AuthService&#45;&gt;UserModule</title>
<path fill="none" stroke="black" d="M512,-122.02C512,-139.37 512,-163 512,-163 512,-163 425.15,-163 425.15,-163"/>
<polygon fill="black" stroke="black" points="425.15,-159.5 415.15,-163 425.15,-166.5 425.15,-159.5"/>
</g>
<!-- JWTPassport -->
<g id="node4" class="node">
<title>JWTPassport</title>
<ellipse fill="#fdb462" stroke="black" cx="372" cy="-104" rx="62.56" ry="18"/>
<text text-anchor="middle" x="372" y="-99.8" font-family="Times,serif" font-size="14.00">JWTPassport</text>
</g>
<!-- JWTPassport&#45;&gt;UserModule -->
<g id="edge3" class="edge">
<title>JWTPassport&#45;&gt;UserModule</title>
<path fill="none" stroke="black" d="M372,-122.11C372,-122.11 372,-140.99 372,-140.99"/>
<polygon fill="black" stroke="black" points="368.5,-140.99 372,-150.99 375.5,-140.99 368.5,-140.99"/>
</g>
<!-- PrismaService -->
<g id="node5" class="node">
<title>PrismaService</title>
<ellipse fill="#fdb462" stroke="black" cx="225" cy="-104" rx="66.63" ry="18"/>
<text text-anchor="middle" x="225" y="-99.8" font-family="Times,serif" font-size="14.00">PrismaService</text>
</g>
<!-- PrismaService&#45;&gt;UserModule -->
<g id="edge4" class="edge">
<title>PrismaService&#45;&gt;UserModule</title>
<path fill="none" stroke="black" d="M225,-122.02C225,-139.37 225,-163 225,-163 225,-163 318.69,-163 318.69,-163"/>
<polygon fill="black" stroke="black" points="318.69,-166.5 328.69,-163 318.69,-159.5 318.69,-166.5"/>
</g>
<!-- UserService -->
<g id="node6" class="node">
<title>UserService</title>
<ellipse fill="#fdb462" stroke="black" cx="82" cy="-104" rx="58.44" ry="18"/>
<text text-anchor="middle" x="82" y="-99.8" font-family="Times,serif" font-size="14.00">UserService</text>
</g>
<!-- UserService&#45;&gt;UserModule -->
<g id="edge5" class="edge">
<title>UserService&#45;&gt;UserModule</title>
<path fill="none" stroke="black" d="M82,-122.28C82,-143.32 82,-175 82,-175 82,-175 318.9,-175 318.9,-175"/>
<polygon fill="black" stroke="black" points="318.9,-178.5 328.9,-175 318.9,-171.5 318.9,-178.5"/>
</g>
</g>
</svg>
